<svg xmlns="http://www.w3.org/2000/svg" version="1.1" xmlns:xlink="http://www.w3.org/1999/xlink" viewBox="0 -100 2400 700" opacity="0.68"><defs><linearGradient x1="50%" y1="0%" x2="50%" y2="100%" id="oooscillate-grad"><stop stop-color="hsl(206, 75%, 49%)" stop-opacity="1" offset="0%"></stop><stop stop-color="hsl(331, 90%, 56%)" stop-opacity="1" offset="100%"></stop></linearGradient></defs><g stroke-width="2.5" stroke="url(#oooscillate-grad)" transform="scale(-1,1)" transform-origin="center"  fill="none" stroke-linecap="round"><path d="M 0 1008 Q 600 195 1200 400 Q 1800 605 2400 1008" stroke-dasharray="2 0" opacity="1.00"></path><path d="M 0 984 Q 600 195 1200 400 Q 1800 605 2400 984" stroke-dasharray="3 3" opacity="0.98"></path><path d="M 0 960 Q 600 195 1200 400 Q 1800 605 2400 960" stroke-dasharray="4 2" opacity="0.95"></path><path d="M 0 936 Q 600 195 1200 400 Q 1800 605 2400 936" stroke-dasharray="2 2" opacity="0.93"></path><path d="M 0 912 Q 600 195 1200 400 Q 1800 605 2400 912" stroke-dasharray="3 0" opacity="0.91"></path><path d="M 0 888 Q 600 195 1200 400 Q 1800 605 2400 888" stroke-dasharray="3 1" opacity="0.88"></path><path d="M 0 864 Q 600 195 1200 400 Q 1800 605 2400 864" stroke-dasharray="2 2" opacity="0.86"></path><path d="M 0 840 Q 600 195 1200 400 Q 1800 605 2400 840" stroke-dasharray="1 2" opacity="0.84"></path><path d="M 0 816 Q 600 195 1200 400 Q 1800 605 2400 816" stroke-dasharray="0 4" opacity="0.81"></path><path d="M 0 792 Q 600 195 1200 400 Q 1800 605 2400 792" stroke-dasharray="1 4" opacity="0.79"></path><path d="M 0 768 Q 600 195 1200 400 Q 1800 605 2400 768" stroke-dasharray="3 1" opacity="0.77"></path><path d="M 0 744 Q 600 195 1200 400 Q 1800 605 2400 744" stroke-dasharray="3 1" opacity="0.75"></path><path d="M 0 720 Q 600 195 1200 400 Q 1800 605 2400 720" stroke-dasharray="3 4" opacity="0.72"></path><path d="M 0 696 Q 600 195 1200 400 Q 1800 605 2400 696" stroke-dasharray="1 0" opacity="0.70"></path><path d="M 0 672 Q 600 195 1200 400 Q 1800 605 2400 672" stroke-dasharray="3 2" opacity="0.68"></path><path d="M 0 648 Q 600 195 1200 400 Q 1800 605 2400 648" stroke-dasharray="2 2" opacity="0.65"></path><path d="M 0 624 Q 600 195 1200 400 Q 1800 605 2400 624" stroke-dasharray="3 4" opacity="0.63"></path><path d="M 0 600 Q 600 195 1200 400 Q 1800 605 2400 600" stroke-dasharray="2 0" opacity="0.61"></path><path d="M 0 576 Q 600 195 1200 400 Q 1800 605 2400 576" stroke-dasharray="1 1" opacity="0.58"></path><path d="M 0 552 Q 600 195 1200 400 Q 1800 605 2400 552" stroke-dasharray="3 1" opacity="0.56"></path><path d="M 0 528 Q 600 195 1200 400 Q 1800 605 2400 528" stroke-dasharray="4 3" opacity="0.54"></path><path d="M 0 504 Q 600 195 1200 400 Q 1800 605 2400 504" stroke-dasharray="1 3" opacity="0.51"></path><path d="M 0 480 Q 600 195 1200 400 Q 1800 605 2400 480" stroke-dasharray="0 3" opacity="0.49"></path><path d="M 0 456 Q 600 195 1200 400 Q 1800 605 2400 456" stroke-dasharray="1 3" opacity="0.47"></path><path d="M 0 432 Q 600 195 1200 400 Q 1800 605 2400 432" stroke-dasharray="2 3" opacity="0.44"></path><path d="M 0 408 Q 600 195 1200 400 Q 1800 605 2400 408" stroke-dasharray="2 3" opacity="0.42"></path><path d="M 0 384 Q 600 195 1200 400 Q 1800 605 2400 384" stroke-dasharray="0 4" opacity="0.40"></path><path d="M 0 360 Q 600 195 1200 400 Q 1800 605 2400 360" stroke-dasharray="0 3" opacity="0.37"></path><path d="M 0 336 Q 600 195 1200 400 Q 1800 605 2400 336" stroke-dasharray="3 3" opacity="0.35"></path><path d="M 0 312 Q 600 195 1200 400 Q 1800 605 2400 312" stroke-dasharray="4 4" opacity="0.33"></path><path d="M 0 288 Q 600 195 1200 400 Q 1800 605 2400 288" stroke-dasharray="2 2" opacity="0.30"></path><path d="M 0 264 Q 600 195 1200 400 Q 1800 605 2400 264" stroke-dasharray="1 1" opacity="0.28"></path><path d="M 0 240 Q 600 195 1200 400 Q 1800 605 2400 240" stroke-dasharray="3 1" opacity="0.26"></path><path d="M 0 216 Q 600 195 1200 400 Q 1800 605 2400 216" stroke-dasharray="4 0" opacity="0.24"></path><path d="M 0 192 Q 600 195 1200 400 Q 1800 605 2400 192" stroke-dasharray="4 1" opacity="0.21"></path><path d="M 0 168 Q 600 195 1200 400 Q 1800 605 2400 168" stroke-dasharray="3 3" opacity="0.19"></path><path d="M 0 144 Q 600 195 1200 400 Q 1800 605 2400 144" stroke-dasharray="1 3" opacity="0.17"></path><path d="M 0 120 Q 600 195 1200 400 Q 1800 605 2400 120" stroke-dasharray="1 2" opacity="0.14"></path><path d="M 0 96 Q 600 195 1200 400 Q 1800 605 2400 96" stroke-dasharray="2 2" opacity="0.12"></path><path d="M 0 72 Q 600 195 1200 400 Q 1800 605 2400 72" stroke-dasharray="3 1" opacity="0.10"></path><path d="M 0 48 Q 600 195 1200 400 Q 1800 605 2400 48" stroke-dasharray="2 1" opacity="0.07"></path></g></svg>
